<svg
        version="1.1"
        width="612pt"
        height="792pt"
        id="svg19"
        viewBox="0 0 612 792"
        xmlns="http://www.w3.org/2000/svg">
    <defs
            id="defs19"/>
    <g
            enable-background="true"

            id="Layer1000">
        <path
                d="m 363.5981,388.0442 c -0.0442,2.1418 0.3261,2.2265 -0.6046,3.9178 -1.9937,3.6234 -0.675,3.7304 -0.7193,5.6103 -0.0279,1.1789 -3.4239,6.9035 -4.2421,7.7404 -0.7323,0.7492 -1.6385,1.4893 -2.4757,2.2818 -0.5849,0.5536 -0.5799,0.702 -1.1841,1.1963 -0.5445,0.4458 -0.7078,0.695 -1.2122,1.1635 -0.8291,0.77 -1.4783,1.8419 -2.69,2.1028 -0.8378,-0.3539 -1.4195,-1.1414 -2.3799,-1.4198 -1.4648,1.0367 -0.7357,1.4427 -1.1807,3.3278 -0.2888,1.2253 -1.1732,1.7961 -2.2041,2.3685 l -5.5918,3.3842 c -2.0658,1.2162 -8.5662,4.1643 -10.7463,4.9991 l -4.314,2.4481 c -1.1367,0.4636 -2.201,0.7711 -3.3231,1.2542 -1.2307,0.5294 -5.3564,2.3353 -6.5329,2.4515 -2.9512,0.2919 -7.9912,-2.0536 -10.7318,-2.7817 -0.5997,-0.1594 -1.0736,-0.287 -1.6882,-0.5065 l -1.1862,-0.4667 c -0.614,-0.363 -0.0432,-0.007 -0.3403,-0.2575 0.5843,-1.1122 2.9069,-3.5856 3.8366,-4.4606 l 4.7944,-3.446 c 2.6986,-1.8463 4.1468,-3.5233 7.3621,-5.0782 0.5614,-0.2714 2.6004,-0.9292 2.8098,-1.0831 0.7536,-0.2443 1.2851,-0.5245 1.8473,-0.8549 l 1.2042,-1.2568 c 0.6161,-0.2213 4.3126,-3.1824 5.9019,-4.2774 0.7919,-0.5459 1.1393,-1.0974 1.7549,-1.5307 0.6365,-0.4485 1.5039,-0.8641 2.1544,-1.3266 1.4283,-1.0156 1.9174,-1.6075 4.1533,-2.4304 0.9202,-0.3388 1.3486,-0.6953 2.1424,-1.1692 l 10.6812,-6.1496 c 1.0825,-0.8903 0.4588,-1.4372 3.5929,-3.0174 0.6231,-0.3143 1.7369,-0.6747 2.0622,-1.1229 0.7932,-0.2585 1.046,-0.5898 1.3624,-1.4265 -0.0547,-0.137 -0.644,-0.9914 -0.7148,-1.0591 -0.3721,-0.3567 -0.9916,-0.4427 -1.6127,-0.4286 -0.8159,0.01 -0.8102,0.1875 -1.131,-0.3432 0.3638,-2.2255 1.4177,-3.2822 0.3039,-5.0124 -1.3434,-0.1224 -1.8239,-0.3508 -2.9525,0.3198 -0.4927,0.2924 -1.5224,0.9099 -1.8354,1.3929 -0.594,0.1573 -0.3187,-0.038 -0.4857,0.4487 l -0.6346,0.6825 c -0.645,0.624 -5.667,3.0867 -6.485,3.2424 -1.809,0.3435 -6.4297,2.6429 -7.7107,3.4523 -3.2335,2.0431 -3.8421,3.3322 -4.5444,3.8743 -1.5898,1.2276 -2.832,2.7643 -4.0851,4.3327 -1.0557,1.3211 -1.5864,1.1938 -3.1389,2.3539 -1.931,1.4434 -1.6927,0.5169 -4.4773,1.1841 -1.6419,0.3935 -2.4239,1.0203 -3.8009,1.708 -4.8041,2.4002 -3.2367,1.5856 -6.5962,4.5689 -1.47,1.3049 -1.5851,1.032 -2.496,3.1726 -0.8453,1.9872 -0.9667,1.6275 -2.3703,3.1246 -1.0586,1.1292 -2.5744,0.9919 -3.1463,2.351 -0.5921,1.4078 -0.9145,2.9301 -2.3119,3.3054 -0.2937,-1.431 -0.4786,-7.955 -3.7189,-4.8423 0.145,1.0101 0.5224,1.5859 0.6398,2.5765 0.1026,0.8677 0.2102,1.8575 0.4383,2.683 0.8544,3.0929 1.801,2.8119 3.0676,3.178 -0.1226,0.9841 -0.6289,0.5484 -0.6237,1.6208 0.009,1.8773 1.2367,2.5184 1.5609,2.8851 0.6714,0.7596 -0.0445,0.6409 0.5953,1.4369 0.1943,0.242 0.8198,0.6164 1.2037,0.9932 1.9322,1.8966 6.5451,4.5952 9.0846,5.7371 0.4388,0.1977 2.983,0.6906 3.5377,0.7307 1.3546,0.098 2.2812,-0.4088 3.846,-0.382 0.9703,0.0169 6.8199,-1.1843 7.2701,-1.3794 1.0758,-0.4664 1.9885,-0.6072 3.1768,-1.0385 2.8465,-1.0333 9.708,-3.5684 12.1158,-4.9069 1.5653,-0.8703 0.3669,-0.4245 2.7202,-1.4835 l 5.2676,-3.3356 c 2.171,-2.1742 3.3676,-2.3823 4.6306,-3.7947 3.1184,-3.4867 4.0202,-2.9942 7.3686,-7.6527 l 2.0192,-2.1966 c 0.3562,-0.69 0.1956,-0.8187 0.77,-1.4155 0.5373,-0.5584 0.5034,-0.3901 1.0258,-1.175 0.2341,-0.3521 0.5854,-0.8292 0.7981,-1.1971 0.4086,-0.7068 0.3073,-0.7646 0.7706,-1.4328 0.5401,-0.7781 2.1328,-7.2282 2.2838,-8.3857 0.2573,-1.9716 1.0781,-10.7867 0.5422,-11.6307 -0.2427,-1.9885 -0.1563,-2.9562 -1.7758,-3.5754 0.137,-0.9995 0.4714,-0.8992 0.3297,-1.8878 -0.395,-2.7556 -0.4482,-2.8616 -1.9869,-4.609 -0.4326,-0.4908 -0.6721,-0.6283 -1.0648,-1.1359 -0.4545,-0.5877 -1.8979,-1.4822 -2.6101,-1.7395 -0.7162,-0.2586 -0.8966,-0.1818 -1.6651,-0.5669 -3.2944,-1.6521 -11.0463,-1.4825 -14.5738,0.5781 -0.4925,0.2878 -0.1243,0.0471 -0.3651,0.2607 -0.7003,0.0268 -2.9773,1.3333 -3.6851,1.7083 -2.9116,1.5424 -5.0879,2.0121 -8.0232,2.7416 -1.3867,0.3445 -3.002,0.5177 -4.3877,0.9736 -2.7309,0.8987 -5.5027,1.9 -7.1954,3.5903 l -4.3215,3.915 c -0.4359,0.4315 -0.7486,0.7872 -1.2036,1.3567 l -4.146,4.1012 c -0.5403,0.3847 -0.9716,0.6464 -1.5544,1.0034 -1.2028,0.737 -2.1028,1.3468 -3.3572,2.132 -3.129,1.9588 -4.0168,3.6822 -5.917,6.3488 -1.3416,1.8825 -2.3359,4.1275 -2.8658,6.461 -0.1273,0.5609 -0.5242,1.1364 -0.8042,1.9744 -0.2432,0.7292 -0.402,1.1268 -0.3169,1.951 0.1722,0.0469 0.5123,0.156 0.694,0.1698 0.8479,0.0646 -0.0281,0.007 0.5727,-0.093 1.0895,-0.1807 0.0474,0.0826 1.0713,0.1589 1.145,-2.0875 0.3586,-1.8718 0.0992,-2.2937 0.0906,-0.3297 0.0977,-0.3239 0.1904,-0.5974 0.003,-0.009 0.1309,-0.3705 0.1427,-0.394 l 0.9135,-1.6002 c 0.9252,-1.895 1.9265,-3.2249 2.2559,-3.9606 1.0271,-2.2947 3.6679,-5.2001 6.0441,-6.5928 l 3.1151,-2.0111 c 0.5887,-0.3258 1.0031,-0.5128 1.5114,-0.8654 l 5.0801,-4.8069 c 2.0851,-2.4937 0.8661,-0.977 2.5119,-2.6174 2.7041,-2.6949 5.4949,-4.6043 9.3849,-5.46 2.9731,-0.6541 5.4066,-1.2684 8.0581,-2.0088 1.2469,-0.3481 6.229,-2.5447 6.6347,-3.1093 2.043,-0.6934 1.8555,-1.3338 5.9449,-1.6708 4.2083,-0.3463 6.5996,-0.2679 9.2081,2.1471 0.7432,0.6883 0.9089,1.3247 1.3896,2.2786 1.582,3.138 2.045,1.482 2.8476,2.639 0.1849,0.2667 0.0705,0.2826 0.333,0.5862 0.6055,0.6997 0.0243,0.1698 0.5057,0.306 0.031,0.0445 0.0763,0.0987 0.0951,0.132 0.0182,0.0326 0.0661,0.093 0.0854,0.1331 l 0.1143,0.2643 c 0.1081,0.4843 -0.0797,0.4536 -0.2031,0.7237 -0.5763,1.2624 0.5539,1.2757 0.4117,4.5142 z"
                style="fill:#1b1918;fill-rule:evenodd"
                id="path1"/>
        <path
                d="m 307.8245,375.9624 c 0.6899,-2.5426 1.38,-5.248 1.4089,-8.2375 0.0211,-2.1906 -0.9125,-5.8923 -1.4604,-8.0586 -0.0583,-1.03 -0.1013,-2.0838 -0.1443,-3.1044 -0.0765,-1.8156 0.0706,-1.1666 -0.4742,-2.5062 -1.3247,-3.2543 -0.8304,-6.0774 -2.4116,-9.2609 -0.3578,-0.7206 -0.3808,-1.5974 -0.606,-2.3406 -0.7695,-2.5369 -2.5744,-5.4939 -4.6838,-7.0149 -1.1468,-0.8271 -0.4893,-0.138 -1.6148,-1.3143 l -3.4465,-2.414 c -1.2911,-0.6154 -3.0364,-1.5008 -4.5207,-1.5888 -1.1224,-0.1096 -1.6487,-0.4784 -2.4479,-0.5781 -1.6486,-0.206 -0.6486,0.2885 -3.6999,-0.7036 -1.1869,-0.3859 -1.6411,-1.0625 -3.9782,-0.7763 -0.8128,-0.5773 -4.6689,-0.1531 -6.0548,0.0599 -1.0542,0.162 -1.9083,0.5008 -2.6588,0.782 -0.4656,0.1747 -0.7836,0.1802 -1.2578,0.425 l -0.8864,0.6771 c 0.7265,3.1634 0.4643,1.0736 1.759,2.7611 1.5661,-0.1013 0.7083,0.2737 1.8333,-0.5677 0.6984,-0.5216 4.5483,-1.245 5.7855,-1.1515 -0.5163,1.2366 -1.9554,1.714 -2.4887,2.634 -0.7023,1.2117 0.964,2.2749 1.3112,3.0978 -0.4386,0.8524 -1.9226,1.2927 -2.614,2.3802 -0.0735,1.7328 0.6135,1.3971 1.3338,2.1588 0.4885,0.5169 0.6138,1.6742 0.6432,2.5921 0.1063,3.3346 0.644,3.6067 0.449,6.241 l -0.9404,5.8415 c -0.389,1.9255 -0.6429,3.8921 -0.7937,6.0509 -0.618,3.6444 -4.3111,7.0121 -4.2817,7.8672 0.0188,0.5506 0.4352,0.8667 0.8912,1.0464 l 1.5463,0.3052 c -0.025,0.008 0.1075,0.0307 0.1554,0.0583 0.3987,0.6253 0.23,3.2129 0.5227,4.2395 1.3273,4.6504 0.6312,3.0601 3.2434,5.8842 0.8664,0.937 0.1487,2.2731 0.8447,3.7439 0.9453,1.9974 0.1446,5.9035 -0.3335,8.1029 -1.0393,4.7806 1.8872,2.9867 4.7644,4.1093 0.3547,2.1013 -0.9065,2.4244 1.3156,3.6405 -1.5687,1.9036 -6.4016,1.1063 -8.4852,0.2464 -2.4991,-1.031 -1.1653,0.3666 -4.6444,-2.3158 l -4.3369,-2.6195 c -0.9179,-0.6555 -1.0809,-0.957 -1.9963,-1.4794 -1.2684,-0.7245 -5.9248,-10.5687 -6.1308,-11.2726 -0.2732,-0.9336 -0.4651,-1.8109 -0.7497,-2.7205 -0.4656,-1.4864 -1.3377,-3.8744 -1.5234,-5.472 -0.4919,-4.2353 -0.7042,-8.7941 -0.7229,-13.1848 -0.008,-1.9469 1.464,-9.6253 1.7739,-12.0898 0.2685,-2.1375 1.3942,-3.1572 2.3452,-4.6744 1.9031,-3.0361 3.7635,-6.9764 5.0499,-8.8664 1.2414,-1.8245 2.4718,-2.2942 2.244,-4.2458 -0.7305,-0.2158 -1.1575,0.5065 -1.5383,0.9172 l -5.629,7.1793 c -0.314,0.5442 -0.6573,0.996 -1.057,1.5122 -0.3062,0.3955 -0.5872,1.0109 -0.9526,1.6093 l -2.1424,3.1559 c -0.6541,1.5653 -0.7148,2.3153 -1.096,4.0543 -0.162,0.7391 -0.1422,1.4919 -0.336,2.2281 -0.6867,2.6103 -0.4882,4.1762 -1.039,6.6152 -0.4044,1.7895 -0.1583,3.097 -0.2862,4.9962 -0.1995,2.9682 -0.4799,6.7186 0.1425,9.6482 0.602,2.8335 1.3103,5.3199 2.5343,7.9342 0.6481,1.3848 0.3286,2.4049 1.2385,3.8913 l 4.1647,8.8195 c 1.9448,3.6033 1.5799,5.5684 5.6556,7.1683 2.4796,0.9735 5.1439,2.0982 7.8738,2.57 0.783,0.1352 1.3385,0.4136 2.1285,0.4763 3.332,0.2649 3.2195,0.3044 6.9389,-0.087 1.5818,-0.1661 2.251,-1.0835 3.5731,-1.5372 1.9635,-0.6734 2.1526,-0.6479 3.7265,-1.5952 3.8212,-2.2994 3.328,-2.7398 4.3264,-3.3671 1.1729,-0.737 3.433,-2.7453 4.0411,-3.6333 0.4724,-0.6898 0.6,-0.9434 1.1859,-1.5614 1.2085,-1.2752 4.0126,-6.1881 4.8397,-7.968 0.3232,-0.695 0.5505,-0.995 0.8117,-1.7497 0.2284,-0.6596 0.219,-1.657 0.395,-2.0937 l 0.5685,-1.3372 c 0.462,-2.4494 0.9461,-2.7447 1.0989,-4.2325 z m -22.9746,-24.209 c 0.7843,-1.1025 0.2773,-3.7402 0.3411,-5.2756 0.0391,-0.9471 0.2953,-1.7396 0.1844,-2.6765 -0.0873,-0.7383 -0.2547,-1.4211 -0.3628,-2.3937 -0.2052,-1.8481 0.0558,-3.2713 -0.294,-5.3764 -0.6718,-4.0421 -1.0843,-2.7054 -1.49,-4.302 l 1.1479,0.0971 c 0.9932,0.475 5.6678,1.4724 6.8578,1.3925 0.4245,0.3872 1.2742,0.6059 1.8208,0.9195 1.6159,0.927 3.1291,1.9244 4.5616,3.1283 4.0794,3.4285 3.4106,5.4806 4.8632,8.3365 0.407,0.7997 0.3917,0.9317 0.5268,2.0171 0.4385,3.5184 0.6708,3.5965 1.4448,6.2691 0.515,1.7786 0.0351,5.3949 1.0502,6.665 -0.2471,1.9434 0.9356,2.8077 0.7932,6.8037 -0.1172,3.289 -1.8997,9.4646 -2.9682,12.7247 -1.7723,5.4058 -1.4762,3.7077 -3.8064,7.9029 -1.5114,2.7218 -1.4593,2.0033 -3.2908,4.5782 -0.6119,0.861 -5.2767,5.2153 -6.168,5.7538 -1.6734,1.0107 -3.0229,2.2424 -5.5486,2.4161 0.1029,-1.2698 0.6599,-0.7745 0.7984,-2.4351 0.0602,-0.7206 0.4112,-2.0648 0.1719,-2.5929 -0.4294,-0.9463 -3.703,-1.2354 -5.016,-1.4073 l 1.2604,-6.7321 c 0.0127,-0.0617 1.5999,-4.3212 1.9832,-6.0105 0.5625,-2.4781 0.5295,-4.8267 0.3344,-7.5209 -0.156,-2.1546 2.002,-1.2544 2.6734,-3.2273 0.8106,-2.3812 -0.7096,-1.1635 -2.464,-1.3137 -0.337,-0.8977 -0.4313,-1.7 -0.7565,-2.5419 -0.4135,-1.07 -0.4216,-1.5497 -0.668,-2.7085 -0.1044,-2.7125 0.4711,-4.0572 1.0318,-6.3788 0.1182,-0.4898 0.2646,-0.7885 0.3672,-1.2325 z"
                style="fill:#1b1918;fill-rule:evenodd"
                id="path2"/>
        <path
                d="m 437.2601,356.4926 31.6105,16.4583 c 0.1467,1.853 0.2615,3.7149 0.3468,5.5846 l -32.971,-19.5121 c -3.3441,-2.0776 -4.0556,-4.6013 1.0137,-2.5308 z m 31.7908,40.2757 -67.4507,-34.9869 c -2.9154,-1.7744 -2.2486,-4.4274 1.6903,-2.4949 l 66.0245,31.7937 c -0.0565,1.904 -0.1432,3.8006 -0.2641,5.6881 z m -72.6774,-2.2489 67.8176,31.9757 c 0.4687,-1.7656 0.9099,-3.5419 1.3211,-5.3305 l -67.9291,-28.4358 c -3.7201,-1.2894 -6.011,-0.8427 -1.2096,1.7906 z m 72.1101,11.8348 -78.4677,-33.5171 c -3.2144,-1.1472 -6.2864,0.783 -2.3041,2.6259 l 79.4911,37.5303 c 0.3151,-1.9105 1.0328,-4.707 1.2807,-6.6391 z"
                style="fill:#1b1918;fill-rule:evenodd"
                id="path3"/>
        <path
                d="m 302.3062,218.4407 c 48.0007,0 91.4581,19.4568 122.9144,50.9131 31.4566,31.4567 50.9134,74.9141 50.9134,122.9148 0,48.0007 -19.4568,91.4581 -50.9134,122.9147 -31.4563,31.4563 -74.9137,50.9132 -122.9144,50.9132 -48.0007,0 -91.4578,-19.4565 -122.9147,-50.9132 -31.4566,-31.4569 -50.9132,-74.914 -50.9132,-122.9147 0,-48.0007 19.4566,-91.4578 50.9132,-122.9148 31.4569,-31.4566 74.914,-50.9131 122.9147,-50.9131 z m 116.2307,57.5968 c -29.7454,-29.7453 -70.8396,-48.1437 -116.2307,-48.1437 -45.3911,0 -86.4854,18.3984 -116.231,48.1437 -29.7454,29.7457 -48.1438,70.84 -48.1438,116.2311 0,45.3911 18.3984,86.4854 48.1438,116.2311 29.7456,29.7453 70.8399,48.1437 116.231,48.1437 45.3911,0 86.4853,-18.3984 116.2307,-48.1437 29.7456,-29.7457 48.144,-70.84 48.144,-116.2311 0,-45.3911 -18.3984,-86.4854 -48.144,-116.2311 z"
                style="fill:#1b1918;fill-rule:evenodd"
                id="path4"/>
        <g
                id="Layer1001">
            <path
                    d="m 189.9527,337.8752 -19.2307,-11.3919 3.2226,-5.4398 14.9174,8.8369 5.4356,-9.1754 4.3129,2.5551 z"
                    style="fill:#1b1918;fill-rule:evenodd"
                    id="path5"/>
            <path
                    d="m 198.4841,322.9801 -10.1555,-22.222 4.1355,-4.6543 23.2836,7.4462 -4.3688,4.9171 -19.5261,-7.0121 1.6544,-1.862 9.261,18.5654 z m 0.3381,-6.9187 -2.4034,-4.3135 7.2533,-8.1633 4.5666,1.8788 z"
                    style="fill:#1b1918;fill-rule:evenodd"
                    id="path6"/>
            <path
                    d="m 220.6964,284.4206 8.4743,-5.8781 2.7845,4.0142 -8.4745,5.8781 z m 7.5194,10.0566 -5.1951,3.6033 -12.7393,-18.3659 14.4044,-9.9913 2.7845,4.0143 -9.2093,6.3879 z"
                    style="fill:#1b1918;fill-rule:evenodd"
                    id="path7"/>
            <path
                    d="m 235.4509,288.6844 -10e-4,-24.4329 5.6959,-2.5146 18.0827,16.45 -6.0175,2.6565 -14.8453,-14.4933 2.2787,-1.0059 0.7069,20.735 z m 3.1828,-6.1523 -0.3931,-4.9222 9.99,-4.4106 3.3726,3.6069 z"
                    style="fill:#1b1918;fill-rule:evenodd"
                    id="path8"/>
            <path
                    d="m 259.8831,277.2595 -4.8437,-21.8206 5.0813,-1.1279 12.3336,12.8314 -2.6808,0.5952 5.4967,-16.7894 5.0809,-1.1279 4.9061,21.8067 -5.6735,1.2594 -2.9888,-13.1721 0.9662,-0.2143 -4.128,12.4945 -2.7432,0.6091 -9.2138,-9.5332 1.1847,-0.2632 2.9268,13.1861 z"
                    style="fill:#1b1918;fill-rule:evenodd"
                    id="path9"/>
            <path
                    d="m 288.2265,271.0574 -0.6499,-22.342 6.3202,-0.1838 0.6496,22.3423 z"
                    style="fill:#1b1918;fill-rule:evenodd"
                    id="path10"/>
            <path
                    d="m 299.094,270.3346 0.6113,-22.3433 6.3203,0.173 -0.4742,17.3321 10.6607,0.2916 -0.1371,5.0111 z"
                    style="fill:#1b1918;fill-rule:evenodd"
                    id="path11"/>
            <path
                    d="m 318.0285,271.7471 3.2239,-22.118 6.2566,0.9122 -3.2242,22.118 z"
                    style="fill:#1b1918;fill-rule:evenodd"
                    id="path12"/>
            <path
                    d="m 325.5682,272.2803 15.5044,-18.8831 5.9977,1.6715 3.5355,24.1882 -6.3362,-1.7653 -2.2754,-20.622 2.3992,0.6685 -12.6122,16.4736 z m 6.364,-2.7348 2.8197,-4.0536 10.5195,2.9313 0.3178,4.9277 z"
                    style="fill:#1b1918;fill-rule:evenodd"
                    id="path13"/>
            <path
                    d="m 367.7243,289.8866 c -1.4958,-0.9404 -2.7287,-2.0492 -3.6988,-3.3254 -0.9701,-1.2762 -1.6418,-2.6478 -2.0145,-4.1141 -0.373,-1.4666 -0.4438,-2.9636 -0.213,-4.4904 0.2308,-1.527 0.7994,-3.0115 1.7058,-4.4532 0.9064,-1.4417 1.9977,-2.5974 3.274,-3.4669 1.2762,-0.8699 2.6559,-1.4547 4.1393,-1.754 1.4831,-0.2997 3.0102,-0.2887 4.5812,0.0326 1.5704,0.321 3.1036,0.952 4.5993,1.8927 1.7482,1.0991 3.1188,2.3882 4.1122,3.8678 0.9934,1.4795 1.5872,3.0852 1.7808,4.8159 l -5.3434,0.9403 c -0.1597,-1.1061 -0.4853,-2.0779 -0.9769,-2.9154 -0.4924,-0.8369 -1.1887,-1.5391 -2.0896,-2.1057 -0.7748,-0.4872 -1.5662,-0.8085 -2.3737,-0.9643 -0.8071,-0.1555 -1.5907,-0.139 -2.3507,0.0498 -0.7596,0.1884 -1.4799,0.5337 -2.1603,1.0363 -0.6808,0.5024 -1.2759,1.1592 -1.7857,1.9703 -0.5098,0.8107 -0.844,1.6318 -1.0018,2.4629 -0.1581,0.8311 -0.1574,1.6299 0.002,2.3963 0.1593,0.7668 0.4842,1.4799 0.9739,2.14 0.4904,0.6604 1.1227,1.2339 1.8979,1.7213 0.9009,0.5664 1.8351,0.89 2.803,0.9705 0.9678,0.0805 1.9848,-0.0469 3.0505,-0.3825 l 1.4686,5.2229 c -1.6328,0.5576 -3.3341,0.7138 -5.1036,0.4688 -1.7698,-0.2454 -3.5284,-0.9175 -5.2765,-2.0165 z"
                    style="fill:#1b1918;fill-rule:evenodd"
                    id="path14"/>
            <path
                    d="m 375.5196,293.1906 22.4636,-9.6095 4.5518,4.2479 -8.013,23.0949 -4.8087,-4.4878 7.4869,-19.3486 1.8209,1.6993 -18.7858,8.8046 z m 6.9081,0.5072 4.3711,-2.2974 7.9838,7.4504 -1.99,4.5195 z"
                    style="fill:#1b1918;fill-rule:evenodd"
                    id="path15"/>
            <path
                    d="m 408.1917,308.5418 6.4709,8.0307 -3.8041,3.0655 -6.4709,-8.0311 z m -9.4909,8.2214 -3.967,-4.9232 17.4048,-14.0239 10.9989,13.6505 -3.8041,3.0652 -7.0322,-8.7273 z"
                    style="fill:#1b1918;fill-rule:evenodd"
                    id="path16"/>
            <path
                    d="m 421.8314,325.2575 5.0985,9.0386 -4.1162,2.322 -5.0985,-9.0389 z m -7.4565,4.7194 5.7418,10.1788 -4.255,2.4003 -8.8167,-15.6299 19.468,-10.9818 8.6127,15.2686 -4.255,2.4003 -5.5381,-9.8175 z m 16.5,-10.004 6.3295,1.3421 2.9805,5.2841 -7.1766,-2.8437 z"
                    style="fill:#1b1918;fill-rule:evenodd"
                    id="path17"/>
        </g>
        <path
                d="m 196.5373,427.7217 v -3.3092 c 1.0178,0.2371 1.2888,0.1593 1.036,1.5221 -0.1583,0.8533 -0.5152,1.4054 -1.036,1.7871 z m -1.9305,-0.8273 c -1.9797,-2.2777 -0.2863,-5.1035 0.2758,-5.5152 0,2.2269 -0.2758,3.6075 -0.2758,5.5152 z m -11.8582,-4.4124 z m 13.5128,-0.5514 v -2.4819 c 0.84,0.0185 1.0054,0.1244 1.6546,0.2759 v 3.0333 h -0.8273 c -0.6355,0 -0.8273,-0.1918 -0.8273,-0.8273 z m -13.5128,0.5514 c 0.2384,-0.8921 0.7048,-1.4787 1.3791,-1.9301 0.4491,0.9709 -0.3834,1.6643 -1.3791,1.9301 z m 2.4819,-2.206 c -0.6045,-1.1429 -0.6051,-1.0644 -0.0231,-2.2064 0.4293,-0.8419 0.7097,-1.6986 1.4022,-2.206 0.1964,0.8432 0.4289,1.0598 0.8273,1.6546 -0.9156,1.0533 -0.8022,1.8175 -2.2064,2.7578 z m -4.4121,-5.5153 v 1.1029 c 1.3355,0.3114 1.9185,0.2759 3.5848,0.2759 -1.0032,1.8959 -2.1787,4.6648 -3.8606,5.7911 0,-1.195 0.002,-2.3901 0,-3.5851 -0.002,-0.8267 -0.1782,-2.8695 0.2758,-3.5848 z m 10.755,3.5848 c 0.5684,0.301 0.6534,0.3827 1.3788,0.5517 0.2247,-0.4683 0.1625,-0.4719 0.3765,-1.0025 l 0.4508,-0.9279 c 0.8286,3.5561 0.6794,0.0758 -0.8521,4.3876 -0.371,1.0449 0.004,0.8123 -0.8026,1.4035 -0.0996,-1.1983 -2.9385,-7.9672 -0.2758,-11.0309 1.2295,5.2775 0.0146,3.1292 -0.2756,6.6185 z m 12.1337,-4.9638 0.0821,0.0824 c -0.005,-0.006 -0.1094,-0.0551 -0.0821,-0.0824 z m 1.9302,-0.5515 z m -11.582,-0.5514 c 1.1286,0.7556 2.8868,3.7561 3.0334,5.5153 -1.3113,-0.0293 -0.8048,0.5296 -1.8914,-2.2452 -0.3674,-0.938 -1.0583,-2.263 -1.142,-3.2701 z m -27.5769,0 z m 27.5769,0 -0.3172,-0.5377 z m -13.2369,2.4819 c 0,-1.681 0.5156,-2.5229 0.8273,-3.861 1.3185,0.3521 0.2502,0.5521 1.9185,0.5665 1.1947,0.01 1.0826,-0.2906 2.4936,-0.2906 -0.0918,1.1068 -0.6823,2.5145 -1.1028,3.3092 -1.3853,0 -3.2067,-0.1706 -4.1366,0.2759 z m 5.2394,-3.5851 z m 8.2731,-1.3787 c 2.7037,1.297 6.2667,1.8924 8.1424,2.8881 0.4378,0.2322 0.6713,0.4475 0.958,0.6967 -3.4207,0 -7.5038,-0.5463 -9.1004,-3.5848 z m -6.0667,5.2394 h -0.5518 c -0.1723,-2.0709 -0.7924,0.3553 0.584,-4.3799 0.356,-1.224 0.3626,-1.7409 0.9694,-2.8916 0.0198,-0.0375 0.0631,-0.1189 0.1013,-0.1743 0,4.5984 -1.0521,5.1671 -1.1029,7.4458 z m -5.7911,-4.9639 c 0.3146,-1.1784 1.5445,-2.0536 2.4125,-2.8268 0.6863,-0.6114 2.3151,-1.7201 3.1027,-2.137 -0.2335,1.0025 -0.527,3.4704 -1.2071,4.0326 -0.9592,0.7925 -3.1828,0.3912 -4.3081,0.9312 z m -15.9947,2.2064 c 0.213,-2.5591 4.7524,-9.9941 5.7911,-10.755 0,3.9756 0.4739,2.6253 1.3791,3.8607 -4.8678,3.2597 -4.8056,5.3107 -7.1702,6.8943 z M 174.2,404.833 Z m 31.4373,7.9972 c -1.6794,-0.4485 -0.7244,-1.6976 -7.7236,-3.5828 -2.4256,-0.6534 -5.7358,-2.3705 -6.3403,-4.9661 4.4137,2.3357 3.1216,1.6868 7.8037,3.5027 3.206,1.2432 4.745,2.1823 6.2602,5.0462 z m -39.6055,-4.911 c -0.1049,-1.143 -0.1127,-2.0849 0.1394,-2.8419 0.3824,-1.1484 0.7605,-1.0677 1.9618,-1.3474 z m 36.5722,-9.1532 c 0.3761,0.199 0.7295,0.3401 1.0986,0.556 l 1.1074,0.8228 h -2.4819 c 0.0619,-0.7433 0.126,-0.7524 0.2759,-1.3788 z m -3.5848,-2.4819 c 3.2014,2.1438 1.0312,1.1364 2.206,3.5851 -0.5983,-0.1394 -1.6865,-0.5781 -2.206,-0.8273 z m -27.0253,2.206 c -2.122,4.0105 -3.6808,3.2565 -5.5155,4.1366 0.0374,-1.6797 0.7126,-2.7568 0.8273,-4.1366 1.2585,0.2932 0.6494,0.5531 2.0451,0.4127 1.0263,-0.1029 1.8129,-0.3436 2.6431,-0.4127 z m 0,0 z m 18.2005,-5.5152 c 2.063,0 2.0357,3.0333 0.2758,3.0333 h -0.5514 c -1.6663,0 -1.7158,-3.0333 0.2756,-3.0333 z m -6.6185,2.7578 c -1.7943,0 -3.2236,-4.3818 1.3791,-3.3092 0.285,1.1908 0.6019,3.3092 -1.3791,3.3092 z m -8.2731,-2.2064 c -0.441,1.6523 -2.0578,2.5494 -2.4815,4.1365 -0.0365,-0.055 -0.1036,-0.1977 -0.1121,-0.1635 l -0.1638,-0.9393 c -5.5039,0 -4.347,0.2153 -2.4819,-3.3092 1.1852,0.0983 1.5373,0.4859 2.5988,0.7269 1.5458,0.3512 1.8158,0.101 2.6405,-0.4514 z M 174.2,404.833 c 0,-3.6323 -1.1032,-6.1054 1.1028,-7.7216 0.6072,2.6057 -0.2589,4.4528 1.6547,4.9638 0.5442,-6.5396 0.1377,-2.4789 -0.2756,-7.4457 1.0915,-0.7309 1.5781,-1.8175 3.0334,-2.206 -0.0434,1.9471 -0.6176,1.8738 0.0387,4.1049 1.0439,3.5493 -3.0223,6.609 -5.554,8.3046 z m 25.0947,-12.134 c 1.9106,0 2.7057,0.1244 3.0334,-1.1029 l 7.1702,7.4458 c -0.9426,-0.2199 -5.4159,-1.8025 -6.0674,-2.206 -1.3465,-0.8339 -3.375,-2.6881 -4.1362,-4.1369 z m -5.7911,-0.8273 c 0.6807,0.1817 2.6698,1.3344 3.1232,1.8409 0.6905,0.771 0.7378,3.1154 0.7378,4.502 -1.8289,-0.9677 -0.5749,-0.7596 -3.3093,-2.2064 0.7453,-1.5536 0.1349,-3.1115 -0.5517,-4.1365 z m 0,0 z m -18.2008,1.6546 v -1.3787 c -1.1351,-0.0945 -2.4959,-0.5736 -3.5847,-0.8273 0.7325,-1.0944 3.5251,-2.7256 4.9638,-2.7578 0.3488,0.6595 0.9185,1.9656 1.1029,2.7578 z m -10.4791,-3.0333 c 0.0274,-0.0274 0.0821,0.0433 0.0825,0.0824 v -4e-4 c -0.006,-0.005 -0.1098,-0.0547 -0.0825,-0.082 z m 0.5518,-0.8273 -0.1518,0.5928 z m 38.3316,0 z m -16.822,-0.8274 0.2759,-1.6546 c 0.4873,-0.2338 1.1885,-0.5836 1.8334,-0.4481 1.7755,0.3719 1.1693,2.4298 0.9244,3.4815 -1.3992,0.6713 -3.0337,0.8084 -3.0337,-1.3788 z m 5.7912,-2.2063 c 1.0657,0.2485 1.5784,0.2791 2.5835,0.7257 0.8856,0.3934 1.4882,0.5973 2.3487,0.9608 1.1791,0.498 3.207,1.7025 3.8926,2.7259 -8.8828,0 -4.772,-0.8482 -8.8248,-1.9305 z m -13.5125,1.379 c 0,-1.4679 3.5848,-3.0519 3.5848,0.5515 0,1.6393 -3.5848,2.3272 -3.5848,-0.5515 z m 5.2394,-2.2063 -0.8742,-1.0605 c 1.0889,-0.3205 0.8491,-0.5746 1.7015,-1.1456 l 1.1644,1.042 c -1.3552,0.3625 -1.0917,0.5615 -1.9917,1.1641 z m -19.0277,3.861 c 0.1016,-1.2211 0.9745,-2.9295 1.4738,-4.0415 l 2.111,-3.9561 c 0.0358,1.6078 0.5765,2.4458 2.2063,2.482 l -0.7716,0.6077 c -2.3979,1.6061 -2.9066,1.0742 -4.3733,3.8998 z m 37.5043,-11.3068 c 0.1814,2.1823 2.094,2.5044 2.7575,10.4794 -0.3088,-0.3553 -0.1042,-0.008 -0.4335,-0.6693 -0.0577,-0.1159 -0.2876,-0.7097 -0.3173,-0.7859 -0.7055,-1.8142 -1.4087,-3.1601 -3.1099,-4.0603 0.7234,-1.5074 -0.2892,-3.9438 1.1032,-4.9639 z m -38.8834,9.3763 v -5.7912 c 0.6007,-0.2882 1.5866,-0.5315 2.482,-0.5514 l -2.2833,5.9898 c -0.0234,0.0479 -0.0788,0.1391 -0.0983,0.1772 -0.0199,0.0381 -0.0619,0.1202 -0.1004,0.1756 z m 22.8887,-6.6185 c 0,-1.1576 0.7625,-1.6582 1.9305,-1.9305 1.4599,0.9778 1.2221,1.3397 0.8273,3.0337 -0.4866,0.2335 -0.8924,0.3179 -1.3787,0.5514 -0.4811,-0.3221 -1.3791,-0.8924 -1.3791,-1.6546 z m -4.6879,-2.4819 c 1.4787,0 2.5939,4.1365 -0.8273,4.1365 -1.9872,0 -2.2829,-4.1365 0.8273,-4.1365 z m 9.6518,0.2759 c 0.7677,0.5139 2.6724,2.5308 6.3399,4.9667 2.5719,1.7081 4.0121,1.7807 4.6359,3.6369 l 0.8823,2.1514 c -2.9014,-1.9429 -2.5614,-2.9858 -8.5473,-4.6906 -2.6373,-0.7511 -2.6952,-0.9947 -3.035,0.2781 l -1.1644,-1.0416 c 1.2208,-1.793 1.4863,-2.7353 0.8886,-5.3009 z m 0,0 z m -0.5515,-0.8273 0.0824,0.082 c -0.005,-0.005 -0.1097,-0.0547 -0.0824,-0.082 z m 13.2369,-1.1032 c 0.9101,0.243 0.3199,0.0488 1.0439,0.6107 0.6173,0.4788 0.4313,0.3814 1.1622,0.768 0.6211,-0.5397 0.9654,-0.8729 1.3787,-1.6546 0.7723,1.2172 -0.4136,5.4589 -0.5234,7.1982 -0.0948,1.4986 0.3326,1.51 -0.5794,2.1781 0,-4.8724 -1.8882,-6.5517 -2.482,-9.1004 z m -13.7883,0.2759 z m 0,0 -0.2759,-0.2759 z m 13.7883,-0.2759 z m 3.5848,-0.2759 z m -17.649,0.2759 c -0.5481,-0.2629 -0.9859,-0.3958 -1.6546,-0.5514 0.2179,-0.8159 0.1124,-0.4472 0.5515,-1.1032 0.5563,0.4074 0.897,0.8827 1.1031,1.6546 z M 169.512,375.877 c -0.3371,1.2621 -1.2312,1.2592 -1.379,3.0337 -1.1729,0.0974 -3.0083,0.5644 -4.1366,0.8273 0.0522,-0.6244 0.1707,-1.1788 0.3218,-1.8846 0.2538,-1.1852 0.0434,-1.1286 1.0648,-1.4172 0.5143,-0.1455 3.5454,-0.5462 4.129,-0.5592 z m 38.0558,0 z m 0,0 -0.2759,-0.2755 z m -38.0558,0 z m 14.6157,-2.4819 c 0,-2.8933 3.3092,-2.1422 3.3092,0 0,1.4149 -0.9185,1.8233 -2.2064,1.9305 -0.4615,-0.4378 -1.1028,-1.0667 -1.1028,-1.9305 z m -6.0671,-1.1029 c 0,-0.7449 0.1316,-0.7605 0.2759,-1.379 h 1.6546 c 2.4523,3.6626 -1.9305,4.4756 -1.9305,1.379 z m 29.2313,3.3093 c -3.6105,-1.9107 -5.0172,-0.6502 -7.7213,-4.6883 1.4602,0.0325 2.5891,0.5608 3.0334,-1.1029 1.6594,0.443 4.4638,4.9511 4.6879,5.7912 z m -36.1253,8.5486 c 0,-3.7343 -2.4519,-3.5369 0.1082,-7.6132 0.2521,-0.4016 0.4729,-0.6524 0.7191,-0.9354 0,2.0321 0.4417,4.1368 0.8274,5.7911 h 1.1028 c 0.8136,-3.4923 -1.5934,-6.3295 0.2635,-8.8365 0.5521,-0.7456 1.1775,-1.4061 1.9426,-1.9185 -0.6531,2.8034 0.2709,4.9358 2.7577,5.5153 -0.2521,3.0307 -5.539,7.4145 -7.7213,7.9972 z m -0.5517,-9.9277 c -0.9446,-0.5306 -2.9904,-0.2756 -4.1365,-0.2756 -1.0544,0 -0.1004,-0.0846 -0.8273,0.2756 0.1149,-1.3797 1.0963,-2.5298 1.6546,-3.5848 h 5.5156 c -0.2948,1.1035 -1.2964,1.865 -2.2064,3.5848 z m 17.9721,-5.7485 c 2.3226,0.5098 3.0323,1.0257 4.3652,1.3364 0,5.1899 -0.8951,3.6838 -0.2759,6.3426 1.5758,-0.0352 0.9022,-0.1388 1.9305,-0.8273 0,-1.8905 0.1537,-2.9445 0.2758,-4.4124 1.1905,0.0993 2.7575,1.2631 2.7575,2.4819 0,1.3703 -1.1028,1.9038 -1.1028,5.7911 1.9109,0 1.7816,-0.0908 1.9568,-2.4549 0.0837,-1.1243 0.4349,-1.9793 0.5251,-3.0603 3.1985,2.1418 2.1308,2.733 1.5416,5.4042 -0.4163,1.8881 -0.2971,1.8073 -0.1629,3.4203 -2.6034,-1.3775 -5.198,-3.3953 -7.2432,-5.442 -4.6215,-4.6245 -1.7363,-6.5296 -5.4423,-7.5191 z m -7.7686,0.2332 c 0.4945,-0.6748 0.3753,-0.5934 1.3788,-0.8273 0.5029,1.8833 1.6425,1.1286 0.5514,2.7578 -0.056,-0.041 -1.8891,-1.8745 -1.9302,-1.9305 z m 5.7912,-2.7578 c 0,4.1167 -3.8245,1.5038 -2.7826,-0.2879 0.5691,-0.9791 2.7826,-1.0139 2.7826,0.2879 z m 3.3092,0 c 3.0076,0 9.5681,0.009 11.5823,2.7578 -5.3159,0 -5.5459,0.004 -10.3723,-2.0373 -0.0202,-0.009 -0.5566,-0.2563 -0.5661,-0.2615 -0.5628,-0.3163 -0.3423,-0.1964 -0.6439,-0.459 z m -11.5823,-0.2755 c 0,-1.3025 0.1186,-1.6546 2.2061,-1.6546 0,1.2201 0.2781,2.7574 -1.1032,2.7574 -0.6453,0 -1.1029,-0.4573 -1.1029,-1.1028 z m -3.0337,1.3787 v 1.3787 h -5.7908 c 0.4528,-1.6959 5.0069,-3.3522 6.0667,-3.8606 -0.0277,1.2471 -0.2759,1.096 -0.2759,2.4819 z m 6.8944,-6.067 c -5.9355,1.383 -10.7993,2.036 -14.3013,6.3813 -1.7599,2.1836 -4.2294,5.9342 -5.015,8.7734 -1.3055,4.7182 -0.5345,12.1939 -1.196,16.1777 -0.214,1.2885 -1.2097,4.2421 0.6569,4.2421 0.9518,0 1.242,-1.1514 1.7028,-1.8823 0.827,-1.3103 2.0256,-1.8569 3.264,-4.1821 2.1113,-3.9633 2.7073,-1.981 8.3955,-6.496 1.2416,-0.9853 0.6961,-1.0468 2.0807,-1.7797 0.3475,1.3009 1.0774,1.3524 1.379,2.4819 -0.5488,0.1466 -0.3752,0.072 -0.7722,0.3309 -1.7716,1.156 0.7872,0.5661 -2.3575,1.5032 -1.2348,0.3681 -2.3416,1.1924 -3.406,1.8338 -4.0652,2.4496 -6.4947,8.2199 -7.5868,12.8199 -1.6478,6.9416 0.2674,8.504 -0.8801,12.9086 -0.1752,0.6736 -2.1233,3.6959 -0.1648,3.6959 0.715,0 2.0579,-1.5589 2.594,-2.0944 l 2.0448,-2.3672 c 4.7306,-7.0575 3.9473,-3.9535 9.2229,-9.2538 1.6051,-1.6129 3.1978,-3.0568 3.7876,-5.5886 4.0861,0 2.4256,-0.1394 4.688,-1.6546 0.8905,1.3299 0.8934,2.0839 1.2042,4.0636 0.3218,2.0491 -0.115,1.9999 -1.5452,3.317 -4.2023,3.8695 -4.7225,2.3973 -6.8071,8.9118 -0.4543,1.4208 -0.2977,3.1256 -0.2977,4.942 4e-4,1.6608 0.1036,3.6457 0.0215,5.2613 -0.1462,2.8841 -2.5034,1.4197 -2.5034,3.0118 0,3.5946 4.0284,-0.0635 4.9043,-0.6114 2.549,-1.5946 6.5634,-3.3424 7.5053,-7.3861 0.9775,0.7162 0.3381,0.9836 1.2117,4.0281 0.7602,2.649 3.3883,6.7314 3.4909,6.9881 0.442,1.1029 -0.1641,3.3239 1.9159,3.3239 0.9009,0 0.91,-0.9449 1.5855,-1.7237 0.5824,-0.671 1.0583,-1.0015 1.4983,-1.8109 3.1819,-5.854 -0.2619,-11.2348 -0.326,-14.1147 1.8787,0 5.0892,-0.0665 6.7122,0.4576 2.3295,0.7517 1.0964,2.3002 2.9396,2.3002 2.5431,0 -1.3286,-6.5947 -1.6657,-7.1592 -1.224,-2.0503 -2.5546,-3.1398 -4.8551,-4.245 -3.2222,-1.5481 -6.749,-1.5161 -9.416,-4.0971 -3.2665,-3.161 -0.5735,-4.1788 1.3211,-5.1814 0.7778,2.9132 9.0323,5.2397 12.6852,5.2397 1.8031,0 3.461,-0.4127 4.883,-0.2061 1.7768,0.2582 3.2194,0.4651 4.2173,-0.8971 -0.3921,-0.5354 -1.3719,-1.1891 -2.006,-1.8546 l -5.7156,-6.1425 c 0.599,-2.5699 1.3185,-1.6778 1.8846,-7.2162 0.77,-7.5307 2.5278,-7.8955 -0.8912,-13.6329 -2.0747,-3.4822 -8.102,-8.3825 -13.6785,-8.3825 -5.5303,0 -7.3396,1.7709 -8.3649,-3.2249 -0.3779,-1.8412 0.3534,-5.6879 1.1263,-7.6063 1.2266,-3.0448 0.3442,-0.9648 0.3442,-2.4057 0,-0.004 0.9798,-3.4066 -1.7435,-3.4812 -1.0393,-0.0287 -0.813,0.5231 -1.1787,1.3823 -1.2403,2.9122 -1.3775,2.862 -1.9618,6.8666 -0.2293,1.5735 -0.6312,3.945 -0.6312,5.4355 z"
                style="fill:#242424;fill-rule:evenodd"
                id="path18"/>
        <path
                d="m 241.3636,453.3682 8.4834,6.9598 c 0.5866,0.5436 1.0625,1.1869 1.6716,1.6374 1.8823,1.3917 2.5304,0.3237 2.5304,3.8124 1.142,-0.3048 0.6635,-0.0436 0.8238,-1.1067 0.071,-0.4704 -0.8531,-2.692 3.5072,-1.2941 0.686,0.2199 1.4866,0.9179 2.0862,1.4989 1.0371,1.0039 2.5715,2.4038 3.4376,3.4568 1.7318,2.1054 0.8566,3.5147 2.0529,4.8414 2.7484,3.0476 8.2167,7.5832 10.3707,10.8631 1.0826,1.6487 2.1822,2.3995 3.4802,3.69 1.1856,1.1781 2.6457,2.7294 2.6457,4.5244 0,1.8836 -1.9842,2.2318 -3.5056,2.837 -7.0093,2.7881 -10.6351,3.7815 -18.5561,3.7815 -1.8201,0 -3.561,-3.5317 -4.3241,-5.0518 l -2.3396,-4.8746 c -0.1967,-0.1707 0.5586,-0.3795 -0.7485,-0.2697 -1.8243,0.1528 -0.4244,1.8732 0.8732,4.8772 0.6528,1.5113 1.1882,3.1102 1.8511,4.4916 -1.1293,-0.3016 -1.1811,-1.0316 -2.482,-1.3791 -0.368,0.7671 -0.5514,2.6506 -0.5514,3.861 -2.1145,-1.0146 -1.3983,0.5918 -1.8416,2.0194 -0.2254,0.726 -1.4337,2.2145 -1.9448,2.7431 -0.7621,0.7892 -1.5012,1.3853 -2.2005,2.2116 -2.1826,2.5787 -3.062,5.2462 -6.1061,7.6826 -4.9606,3.9707 -5.2772,2.6506 -10.8621,7.6141 -1.2218,1.0856 -3.5447,3.7489 -5.3606,3.5932 -3.0327,-0.2599 -3.7427,-0.4882 -5.9208,-3.2098 -3.6004,-4.4981 -2.1653,-2.0162 -2.1653,-6.6595 4.2642,-2.2566 3.2232,-1.6693 6.1524,-5.1544 0.6504,-0.7736 1.1129,-1.3097 1.7595,-2.1015 2.0571,-2.5184 0.9328,-1.9083 4.5335,-5.9455 2.1409,-2.4005 8.0291,-1.4846 9.5577,-2.8519 0.2228,-0.1994 1.5527,-1.909 1.7067,-2.1543 0.4489,-0.7143 0.8612,-1.7054 1.3003,-2.5601 1.0048,-1.9549 0.8426,-4.0114 1.2263,-6.4953 0.2439,-1.5778 1.8923,-4.1838 1.8923,-5.8296 l -1.1054,-1.9282 c -0.341,-0.6863 -0.6488,-1.2354 -0.9843,-2.0487 -1.5986,-3.8734 -2.1292,-5.0919 -5.2348,-7.4507 -0.6948,-0.5276 -1.1104,-0.8445 -1.7947,-1.239 -2.3855,-1.3748 -2.78,-3.7958 -2.0686,-6.5181 l 2.3083,-4.0346 c 1.5885,-2.6503 3.1356,-5.4052 5.8459,-6.8393 z m -12.6855,16.8217 c 0.968,0.6482 1.8077,1.1856 2.5272,2.1614 4.4955,6.097 0.7882,5.8361 8.2281,5.8361 2.9451,5.5661 0.3801,7.0298 0.0401,10.5192 -0.3551,3.6395 -0.0932,2.5321 -1.6947,4.9238 -2.4428,-0.0544 -1.0986,-0.855 -3.2516,0.6074 -3.2949,2.2383 -3.2463,-1.597 -7.9447,5.2941 l -2.9536,3.6649 c -0.997,1.182 -1.0409,0.9501 -1.8139,2.5982 -1.3422,2.8614 -0.9758,2.7269 -4.1674,2.7269 -0.4098,1.7585 -2.7292,5.2589 -5.4212,4.5938 l -5.6638,-8.9518 c -1.8546,-2.7819 -2.9349,-3.7936 -5.7325,-5.0228 -1.7559,-0.7716 -5.1853,-2.6842 -6.2344,-4.2447 -1.0312,-1.5331 -1.7673,-2.6572 -1.7673,-4.5753 0,-0.7211 4.4928,-5.5445 5.1983,-6.108 l 3.005,-2.5103 c 4.0734,-3.7909 2.425,-0.497 7.0116,-4.2948 2.834,-2.3468 0.3837,-4.0278 6.1843,-5.398 3.0535,-0.7215 1.9422,-0.4068 2.5927,-3.1988 0.8996,-0.4316 3.1401,-0.7961 4.1059,-0.6466 1.4999,0.2319 1.3979,1.9553 1.9608,3.1285 0.7781,-0.57 1.2764,-2.078 1.379,-3.3092 3.9092,-0.3254 4.4636,-2.1155 4.9639,-2.482 -0.0352,1.5775 -0.5518,2.9077 -0.5518,4.688 z m -37.5043,17.0979 c -1.3892,0 -1.326,0.1084 -2.2787,-0.4791 l -4.0333,-3.1366 c -1.7989,-1.4136 -6.3794,1.2673 -10.196,2.8265 -1.4648,0.5983 -2.7429,1.3719 -4.2652,2.0774 -1.6139,0.7478 -2.8572,1.2458 -4.3219,2.021 0.5622,2.4132 2.7246,1.3338 4.0356,0.4505 0.997,-0.672 1.6487,-1.0762 2.7024,-1.71 2.4822,-1.4934 5.0459,-2.1165 7.7617,-3.2698 1.7771,-0.7547 2.806,-1.1824 4.5772,0.068 1.6481,1.1635 3.4297,2.5572 4.1926,4.6323 0.9742,2.6519 5.1908,8.0864 7.9678,9.4056 1.4338,0.681 1.7458,0.1195 3.1571,1.2553 0.8655,0.6963 1.5299,1.3334 2.4005,2.0115 2.6305,2.0484 3.4034,4.9785 5.3557,7.6054 1.3745,1.8494 4.6336,6.082 5.4661,7.7711 1.5445,3.134 3.5799,5.0176 5.6433,7.5937 0.9312,1.1624 1.2416,1.1569 2.2418,2.1702 3.2187,3.26 5.4251,2.622 9.7766,3.1848 4.384,0.567 6.111,0.2531 10.3439,2.893 0.9091,0.567 1.622,1.2657 2.4578,1.9545 1.0579,0.8723 1.0856,1.3736 2.9959,1.4162 -0.0759,-0.9116 -0.5071,-1.4933 -1.0595,-1.9741 -5.2791,-4.5955 -9.1711,-6.0234 -17.1412,-6.0234 0,-1.9106 0.4563,-1.6533 2.9815,-3.361 l 6.4335,-4.8733 c 2.2161,-1.6732 4.713,-2.7669 6.3439,-4.9625 1.6959,-2.2829 3.4072,-4.0079 5.8051,-5.5013 0.5615,-0.3498 1.141,-0.7221 1.6419,-1.1159 l 7.5064,-6.8337 c 1.3253,-0.8136 6.4441,-0.498 9.7257,-1.581 3.2965,-1.0879 5.425,-1.9728 8.9684,-2.3376 2.4569,-0.2531 2.9008,0.0335 4.7652,-1.026 1.8738,-1.0651 3.3281,-1.7758 5.3944,-1.7758 v 4.9638 c 0,1.3863 -0.2478,1.2351 -0.2755,2.482 1.593,1.067 2.1754,0.9878 2.2106,3.5805 0.0697,5.1609 1.3158,4.2789 -3.1024,8.2131 -1.0661,0.9495 -2.1732,1.9963 -3.2425,2.8246 -1.0976,0.8504 -2.0513,1.6826 -3.2327,2.5588 -0.6817,0.5055 -1.0862,0.826 -1.7041,1.3292 -3.5395,2.8806 -4.3714,10.7938 -10.3019,16.7233 l -3.6268,3.5916 c -0.5013,0.5143 -0.6755,0.3365 -0.5078,0.8443 0.2704,0.8191 2.9464,-1.2429 3.4301,-1.5553 3.8206,-2.4653 4.2069,-3.7183 7.6405,-6.9754 1.7009,-1.6133 2.4894,-3.6714 3.7753,-5.6009 0.5495,-0.8247 0.6329,-1.0475 1.1202,-1.9133 0.7074,-1.2562 8.2186,-6.7135 9.9117,-8.0134 3.36,-2.5797 2.1138,-5.7922 2.3164,-9.5414 0.0665,-1.2296 0.299,-1.3485 0.299,-2.7562 0,-2.4832 -0.5973,-5.2606 -0.4032,-8.4079 0.3361,-5.454 1.5396,-9.3883 5.4612,-12.4347 1.2384,-0.9615 2.0859,-1.767 3.348,-2.7187 l 13.9095,-10.0827 3.7939,3.376 c 0.5875,0.5192 0.7843,0.5508 1.38,1.1019 4.4919,4.1557 4.2557,3.3776 8.6186,6.2729 0.8567,0.5683 2.0914,1.3859 2.8337,2.1301 l 2.2194,2.7444 c 0.7097,0.7068 2.1448,1.5908 2.6643,2.2996 -0.7709,0.2061 -1.5494,0.9208 -2.1353,1.4497 -8.4428,7.6226 -17.6764,7.9493 -18.5877,8.4379 -0.8534,0.4576 -2.8448,3.076 -3.7502,3.971 -1.9256,1.9035 -4.0418,3.7229 -5.7801,5.8026 -0.7495,0.8963 -0.9579,1.2178 -1.8045,2.0562 -1.1253,1.1156 -2.9965,2.7409 -3.7922,3.9294 0.955,0.7976 4.9199,-0.529 7.2448,-2.9588 l 2.3366,-2.6272 c 2.5308,-2.5457 5.5661,-5.2351 8.8916,-6.5516 1.184,-0.4687 2.3546,-0.8296 3.6936,-1.27 1.6295,-0.5361 2.2565,-0.8713 3.6639,-1.5761 2.3142,-1.1589 4.2997,-2.1588 6.6188,-3.3086 6.8715,-3.4069 11.5054,-10.2322 17.2796,-13.3307 1.2058,-0.6472 2.221,-0.926 3.1578,-1.806 l 7.4588,-7.7087 c 1.7715,-1.4171 4.6749,-2.776 6.9565,-3.2466 2.4868,-0.513 10.1137,-0.3635 11.5126,-2.2761 0.0348,-0.0479 0.0664,-0.1267 0.1023,-0.1736 0.0355,-0.0459 0.0723,-0.1215 0.111,-0.1648 0.7179,-0.8068 3.1008,-1.1094 4.3633,-1.4283 3.7293,-0.9416 4.057,-0.2166 6.5826,2.3005 0.5941,0.5922 0.6244,0.6645 1.1475,1.3341 l 3.358,4.3636 c 4.2532,6.4683 5.3375,2.036 3.7343,11.7885 -1.9901,12.1053 -0.9732,7.3451 -5.1632,12.762 -0.6455,0.8348 -1.1282,1.1761 -1.6559,1.9292 -1.951,2.7828 -2.8522,6.763 -4.1326,9.9315 -0.728,1.8009 -1.3527,3.5115 -2.0054,5.1645 -0.6719,1.7019 -1.7077,3.1086 -2.5249,4.645 -1.8149,3.4128 -5.6205,4.9648 -8.6193,2.2747 -10.9201,-9.7954 -11.5217,-16.1406 -28.0672,-11.9356 -3.9476,1.0032 -11.4966,4.4006 -14.7211,6.5129 -7.1709,4.6964 -14.4649,9.2062 -21.5071,14.0671 -2.8399,1.9605 -5.3475,3.9268 -8.3489,5.7153 -6.0309,3.5939 -8.0597,1.3416 -11.311,3.0291 -3.8903,2.0187 -5.3661,3.1959 -8.4222,5.9178 -1.3289,1.1837 -2.4579,2.2285 -3.8372,3.3327 -1.1879,0.9508 -2.6181,2.5454 -3.82,3.3503 0.5524,0.8247 0.8137,1.367 1.6546,1.9301 1.0374,-0.6944 2.2514,-1.9425 3.2431,-2.8239 l 3.294,-2.7728 c 2.9975,-2.5206 7.0024,-7.0712 11.3826,-7.094 1.8204,-0.01 4.2502,-0.3367 5.5612,-0.7813 1.4637,-0.4967 2.6389,-1.3482 3.9401,-2.1269 5.7289,-3.4298 12.0246,-8.4122 18.516,-12.3699 2.0227,-1.2331 14.1512,-9.5355 15.2837,-9.5355 1.0556,0 2.5936,0.4837 3.3092,0.8273 -0.3632,1.5592 -1.2559,1.5683 -1.3927,3.0415 -0.145,1.565 0.2899,2.634 0.2899,4.1284 -0.7124,-0.5218 -0.6443,-1.0631 -1.1032,-1.9305 -2.1507,0.1791 -3.9213,1.5784 -5.3101,2.9633 -0.6706,0.6687 -0.6403,0.9211 -1.5843,1.1732 v 0.8273 c 1.5534,0.3619 3.4109,0.4655 4.9639,0.8273 -0.5951,2.5546 -2.9637,4.0291 -4.9163,5.287 -2.164,1.3937 -6.7881,6.5556 -8.803,8.5704 l -3.317,3.5773 c -1.1221,1.28 -1.7706,2.6796 -3.0155,3.8789 -1.5077,1.4527 -6.8624,4.3447 -9.1795,4.8847 0.3153,1.181 2.6927,1.34 4.617,1.7253 2.1024,0.4208 3.2496,0.4775 5.8787,0.4807 h 0.1287 0.1306 c 2.0992,-9.0114 1.8093,-5.5954 5.0173,-10.4257 1.3676,-2.0598 5.6282,-6.4826 7.5086,-7.9343 2.0054,-1.5484 3.289,-3.8593 6.2422,-4.2372 2.5611,-0.3279 4.386,-2.3213 5.599,-4.6045 l 2.1647,-8.3141 c 1.0996,-4.63 0.1322,-5.6622 4.1398,-8.5457 2.6271,-1.8904 10.3426,-1.4941 13.2652,0.6762 3.9209,2.9121 7.5855,8.1955 11.3253,11.0119 3.901,2.9383 8.9896,3.1461 13.3965,5.0798 2.1448,0.9413 5.8485,2.7992 8.005,3.3017 0.1394,-0.5983 0.5781,-1.6865 0.8273,-2.206 -1.5347,-0.8123 -3.048,-1.394 -4.7645,-2.1298 -1.4126,-0.6055 -3.4946,-1.6823 -4.8873,-2.0067 0,-6.0296 3.4196,-10.8993 4.9638,-16.5461 0.2688,-0.9837 0.5039,-1.7664 0.8599,-2.7253 1.0511,-2.8317 5.5964,-7.7988 7.6119,-10.313 2.9858,-3.7248 0.525,-16.1282 3.7593,-18.0437 0.826,-0.4892 1.5426,0.0616 2.4263,0.426 0.9693,0.3997 1.5878,0.7176 2.4392,1.1495 2.4751,1.2556 4.9746,1.722 6.8145,3.9404 3.9324,4.7411 3.7574,5.1173 9.1812,8.7441 4.315,2.8854 7.7216,2.8268 7.7216,6.894 1.0703,-0.089 1.0228,-0.1596 1.4921,-0.9896 1.6429,-2.9043 -0.2785,-3.4847 -4.9892,-6.2683 -1.2247,-0.7237 -1.9846,-1.3074 -3.2093,-2.0301 -2.6044,-1.5367 -5.4481,-3.2874 -7.3171,-5.6443 -2.0415,-2.5744 -4.2323,-4.4166 -7.2988,-5.938 -1.2928,-0.6413 -2.3399,-0.953 -3.5855,-1.654 -2.2053,-1.2413 -4.8788,-2.1379 -6.6044,-3.875 -3.6893,-3.7144 -0.6361,-3.4691 -8.4359,-9.7651 -1.4006,-1.1305 -2.6888,-2.8268 -4.175,-3.8219 -3.3157,1.7543 -10.2358,4.329 -14.0577,5.2462 -2.233,0.5358 -6.5298,0.6202 -8.29,1.3618 -0.8042,0.3391 -1.9253,1.3296 -2.8001,1.8882 -3.9056,2.493 -7.7379,5.0508 -11.3406,7.963 -3.8783,3.1346 -6.1915,5.7367 -10.5553,8.7482 l -2.8705,2.0937 c -2.324,-1.2299 -3.6372,-3.2385 -5.4384,-5.041 -2.6435,-2.6454 -6.5944,-3.8415 -9.2411,-6.4774 -0.6035,-0.6013 -0.743,-0.6368 -1.3563,-1.126 -9.3541,-7.4624 -1.7549,-10.6273 -20.6383,3.8228 -2.8148,2.154 -5.5834,4.4756 -8.7362,6.1557 -5.5319,2.9473 -4.7994,5.0387 -9.0043,1.651 -1.3833,-1.1149 -1.6354,-1.5214 -2.6696,-2.8461 -0.78,-0.9986 -1.4823,-1.8445 -2.3213,-2.918 -0.8032,-1.028 -1.7875,-1.88 -2.7115,-2.8041 -0.941,-0.9409 -1.6748,-1.6784 -2.6158,-2.6239 -1.1368,-1.1426 -1.8309,-1.366 -2.8308,-2.6845 -0.8504,-1.1208 -1.6846,-1.7002 -2.6073,-2.908 -1.2797,-1.6741 -0.8866,-2.0086 -1.7214,-3.7938 -1.5852,-3.39 -5.412,-5.7798 -8.6242,-7.3706 -1.9842,-0.9823 -2.6001,-0.5445 -5.711,-2.2864 -1.6582,-0.9286 -3.7277,-1.7856 -4.9413,-3.3317 -0.7814,-0.9954 -1.6882,-2.2377 -2.5881,-2.9272 -0.9759,-0.7478 -2.0276,-1.8009 -3.038,-2.4774 -1.0927,0.5782 -1.9959,1.4879 -2.9522,2.2875 -0.8817,0.7371 -1.9637,1.8868 -2.7542,2.7611 l -0.3883,0.439 c -2.5633,2.678 -5.8302,4.6111 -9.1635,6.2797 -1.667,0.8342 -2.1269,0.9706 -4.0483,1.467 -1.4754,0.3814 -2.732,0.8733 -4.0945,1.4208 -6.1344,2.465 -4.8436,1.8419 -10.156,6.1146 -6.0344,4.8534 -4.7762,5.7637 -11.7301,10.0556 -1.4228,0.8778 -4.7434,4.2219 -5.1785,5.8521 z"
                style="fill:#1b1918;fill-rule:evenodd"
                id="path19"/>
    </g>
</svg>
