<svg width="1169" height="119" viewBox="0 0 1169 119" fill="none" xmlns="http://www.w3.org/2000/svg">
<path d="M0.96 117V27.4H26.304V96.904H69.056V117H0.96ZM69.208 117L108.76 27.4H133.72L173.4 117H147.032L116.056 39.816H126.04L95.064 117H69.208ZM90.84 99.592L97.368 80.904H141.144L147.672 99.592H90.84ZM217.835 117V27.4H288.107V46.984H243.179V117H217.835ZM241.387 86.28V66.696H282.731V86.28H241.387ZM285.708 117L325.26 27.4H350.22L389.9 117H363.532L332.556 39.816H342.54L311.564 117H285.708ZM307.34 99.592L313.868 80.904H357.644L364.172 99.592H307.34ZM397.085 117V27.4H417.949L455.069 88.328H444.061L480.157 27.4H501.021L501.277 117H477.981L477.725 62.856H481.693L454.685 108.168H443.421L415.645 62.856H420.509V117H397.085ZM519.21 117V27.4H544.554V117H519.21ZM562.585 117V27.4H587.929V96.904H630.681V117H562.585ZM640.71 117V27.4H666.054V117H640.71ZM673.333 117L712.885 27.4H737.845L777.525 117H751.157L720.181 39.816H730.165L699.189 117H673.333ZM694.965 99.592L701.493 80.904H745.269L751.797 99.592H694.965ZM866.632 118.792C859.549 118.792 852.979 117.683 846.92 115.464C840.947 113.16 835.741 109.917 831.304 105.736C826.952 101.555 823.539 96.648 821.064 91.016C818.589 85.2987 817.352 79.0267 817.352 72.2C817.352 65.3733 818.589 59.144 821.064 53.512C823.539 47.7947 826.952 42.8453 831.304 38.664C835.741 34.4827 840.947 31.2827 846.92 29.064C852.979 26.76 859.549 25.608 866.632 25.608C874.909 25.608 882.291 27.0587 888.776 29.96C895.347 32.8613 900.808 37.0427 905.16 42.504L889.032 57.096C886.131 53.6827 882.931 51.08 879.432 49.288C876.019 47.496 872.179 46.6 867.912 46.6C864.243 46.6 860.872 47.1973 857.8 48.392C854.728 49.5867 852.083 51.336 849.864 53.64C847.731 55.8587 846.024 58.5467 844.744 61.704C843.549 64.8613 842.952 68.36 842.952 72.2C842.952 76.04 843.549 79.5387 844.744 82.696C846.024 85.8533 847.731 88.584 849.864 90.888C852.083 93.1067 854.728 94.8133 857.8 96.008C860.872 97.2027 864.243 97.8 867.912 97.8C872.179 97.8 876.019 96.904 879.432 95.112C882.931 93.32 886.131 90.7173 889.032 87.304L905.16 101.896C900.808 107.272 895.347 111.453 888.776 114.44C882.291 117.341 874.909 118.792 866.632 118.792ZM903.208 117L942.76 27.4H967.72L1007.4 117H981.032L950.056 39.816H960.04L929.064 117H903.208ZM924.84 99.592L931.368 80.904H975.144L981.672 99.592H924.84ZM1014.59 117V27.4H1084.86V46.984H1039.93V117H1014.59ZM1038.14 86.28V66.696H1079.48V86.28H1038.14ZM1096.71 117V27.4H1166.98V46.984H1121.8V97.416H1168.65V117H1096.71ZM1120.01 81.032V62.088H1161.61V81.032H1120.01ZM1119.37 20.104L1136.52 0.647995H1160.84L1136.77 20.104H1119.37Z" fill="black"/>
</svg>
